<svg width="29" height="60" viewBox="0 0 29 60" fill="none" xmlns="http://www.w3.org/2000/svg">
<path d="M3.52273 39V9.90909H13.3523C15.6345 9.90909 17.5 10.321 18.9489 11.1449C20.4072 11.9593 21.4867 13.0625 22.1875 14.4545C22.8883 15.8466 23.2386 17.3996 23.2386 19.1136C23.2386 20.8277 22.8883 22.3854 22.1875 23.7869C21.4962 25.1884 20.4261 26.3059 18.9773 27.1392C17.5284 27.9631 15.6723 28.375 13.4091 28.375H6.36364V25.25H13.2955C14.858 25.25 16.1127 24.9801 17.0597 24.4403C18.0066 23.9006 18.6932 23.1714 19.1193 22.2528C19.5549 21.3248 19.7727 20.2784 19.7727 19.1136C19.7727 17.9489 19.5549 16.9072 19.1193 15.9886C18.6932 15.0701 18.0019 14.3504 17.0455 13.8295C16.089 13.2992 14.8201 13.0341 13.2386 13.0341H7.04545V39H3.52273Z" fill="#365084"/>
<path d="M27.1989 38H24.5568C24.4006 37.2401 24.1271 36.5724 23.7365 35.9972C23.353 35.4219 22.8842 34.9389 22.3303 34.5483C21.7834 34.1506 21.1761 33.8523 20.5085 33.6534C19.8409 33.4545 19.1449 33.3551 18.4205 33.3551C17.0994 33.3551 15.9027 33.6889 14.8303 34.3565C13.7649 35.0241 12.9162 36.0078 12.2841 37.3075C11.6591 38.6072 11.3466 40.2017 11.3466 42.0909C11.3466 43.9801 11.6591 45.5746 12.2841 46.8743C12.9162 48.174 13.7649 49.1577 14.8303 49.8253C15.9027 50.4929 17.0994 50.8267 18.4205 50.8267C19.1449 50.8267 19.8409 50.7273 20.5085 50.5284C21.1761 50.3295 21.7834 50.0348 22.3303 49.6442C22.8842 49.2464 23.353 48.7599 23.7365 48.1847C24.1271 47.6023 24.4006 46.9347 24.5568 46.1818H27.1989C27 47.2969 26.6378 48.2947 26.1122 49.1754C25.5866 50.0561 24.9332 50.8054 24.152 51.4233C23.3707 52.0341 22.4936 52.4993 21.5206 52.8189C20.5547 53.1385 19.5213 53.2983 18.4205 53.2983C16.5597 53.2983 14.9048 52.8438 13.456 51.9347C12.0071 51.0256 10.8672 49.733 10.0362 48.0568C9.20526 46.3807 8.78977 44.392 8.78977 42.0909C8.78977 39.7898 9.20526 37.8011 10.0362 36.125C10.8672 34.4489 12.0071 33.1562 13.456 32.2472C14.9048 31.3381 16.5597 30.8835 18.4205 30.8835C19.5213 30.8835 20.5547 31.0433 21.5206 31.3629C22.4936 31.6825 23.3707 32.1513 24.152 32.7692C24.9332 33.38 25.5866 34.1257 26.1122 35.0064C26.6378 35.88 27 36.8778 27.1989 38Z" fill="#365084"/>
</svg>
